HIERARCHY
ROOT Hips
{
	OFFSET -3.958830 18.904000 13.208200
	CHANNELS 6 Xposition Yposition Zposition Zrotation Yrotation Xrotation 
	JOINT LHipJoint
	{
		OFFSET 0.000000 0.000000 0.000000
		CHANNELS 3 Zrotation Yrotation Xrotation
		JOINT LeftUpLeg
		{
			OFFSET 1.800000 -1.400000 0.085000
			CHANNELS 3 Zrotation Yrotation Xrotation
			JOINT LeftLeg
			{
				OFFSET 2.215000 -6.000000 0.000000
				CHANNELS 3 Zrotation Yrotation Xrotation
				JOINT LeftFoot
				{
					OFFSET 2.500000 -6.900000 0.000000
					CHANNELS 3 Zrotation Yrotation Xrotation
					JOINT LeftToeBase
					{
						OFFSET 0.200000 -0.500000 1.950000
						CHANNELS 3 Zrotation Yrotation Xrotation
						End Site
						{
							OFFSET 0.000000 0.000000 0.000000
						}
					}
				}
			}
		}
	}
	JOINT RHipJoint
	{
		OFFSET 0.000000 0.000000 0.000000
		CHANNELS 3 Zrotation Yrotation Xrotation
		JOINT RightUpLeg
		{
			OFFSET -1.800000 -1.400000 0.085000
			CHANNELS 3 Zrotation Yrotation Xrotation
			JOINT RightLeg
			{
				OFFSET -2.215000 -6.000000 0.000000
				CHANNELS 3 Zrotation Yrotation Xrotation
				JOINT RightFoot
				{
					OFFSET -2.500000 -6.900000 0.000000
					CHANNELS 3 Zrotation Yrotation Xrotation
					JOINT RightToeBase
					{
						OFFSET -0.200000 -0.500000 1.950000
						CHANNELS 3 Zrotation Yrotation Xrotation
						End Site
						{
							OFFSET 0.000000 0.000000 0.000000
						}
					}
				}
			}
		}
	}
	JOINT LowerBack
	{
		OFFSET 0.000000 0.000000 0.000000
		CHANNELS 3 Zrotation Yrotation Xrotation
		JOINT Spine
		{
			OFFSET -0.087000 1.940000 -0.288900
			CHANNELS 3 Zrotation Yrotation Xrotation
			JOINT Spine1
			{
				OFFSET 0.000000 1.950000 0.060000
				CHANNELS 3 Zrotation Yrotation Xrotation
				JOINT Neck
				{
					OFFSET 0.000000 0.000000 0.000000
					CHANNELS 3 Zrotation Yrotation Xrotation
					JOINT Neck1
					{
						OFFSET 0.000000 1.600000 0.340000
						CHANNELS 3 Zrotation Yrotation Xrotation
						JOINT Head
						{
							OFFSET 0.000000 1.667000 -0.240000
							CHANNELS 3 Zrotation Yrotation Xrotation
							End Site
							{
								OFFSET 0.000000 0.000000 0.000000
							}
						}
					}
				}
				JOINT LeftShoulder
				{
					OFFSET 0.000000 0.000000 0.000000
					CHANNELS 3 Zrotation Yrotation Xrotation
					JOINT LeftArm
					{
						OFFSET 2.700000 1.550000 -0.730000
						CHANNELS 3 Zrotation Yrotation Xrotation
						JOINT LeftForeArm
						{
							OFFSET 5.450000 0.000000 0.000000
							CHANNELS 3 Zrotation Yrotation Xrotation
							JOINT LeftHand
							{
								OFFSET 3.450000 0.000000 0.000000
								CHANNELS 3 Zrotation Yrotation Xrotation
								JOINT LeftHandIndex1
								{
									OFFSET 0.750000 0.000000 0.000000
									CHANNELS 3 Zrotation Yrotation Xrotation
									End Site
									{
										OFFSET 0.000000 0.000000 0.000000
									}
								}
							}
						}
					}
				}
				JOINT RightShoulder
				{
					OFFSET 0.000000 0.000000 0.000000
					CHANNELS 3 Zrotation Yrotation Xrotation
					JOINT RightArm
					{
						OFFSET -2.700000 1.550000 -0.730000
						CHANNELS 3 Zrotation Yrotation Xrotation
						JOINT RightForeArm
						{
							OFFSET -5.450000 0.000000 0.000000
							CHANNELS 3 Zrotation Yrotation Xrotation
							JOINT RightHand
							{
								OFFSET -3.450000 0.000000 0.000000
								CHANNELS 3 Zrotation Yrotation Xrotation
								JOINT RightHandIndex1
								{
									OFFSET -0.750000 0.000000 0.000000
									CHANNELS 3 Zrotation Yrotation Xrotation
									End Site
									{
										OFFSET 0.000000 0.000000 0.000000
									}
								}
							}
						}
					}
				}
			}
		}
	}
}
MOTION
Frames: 4
Frame Time: 0.016667
12.324520 15.893190 -7.067740 -4.895923 13.814711 6.762378 -15.208162 10.631600 5.539001 21.705153 -7.022458 -37.393996 -31.342091 17.238963 28.583471 0.590803 9.208176 1.115036 0.449010 0.637660 0.116260 18.625039 -7.240733 5.057690 -19.816907 6.878236 -54.148658 2.740747 -1.006638 -0.892852 -0.339404 -0.913887 3.588324 0.278190 0.141860 0.026540 -4.013088 -2.183303 -10.458818 5.390647 -7.950131 49.528978 -14.923806 1.428623 22.690818 5.826895 -2.778381 -40.671826 -25.762156 13.148385 74.772899 11.870860 -8.692560 -16.769880 -27.086893 -47.211095 21.088250 -11.302583 -36.718032 -13.160434 21.978698 -3.107574 -3.667423 -3.774864 2.649179 0.654690 -0.400560 0.497950 0.210040 15.707166 51.774777 10.886585 14.422659 37.090257 -3.474561 -8.594156 -7.943751 0.431080 3.614718 -0.617705 -0.043140 0.651640 0.019270 0.256890 
12.287400 15.915970 -7.052380 -4.912693 14.584765 7.142746 -15.208899 10.634514 5.528491 21.734373 -7.237356 -37.610201 -30.758394 16.755026 28.326994 0.551011 9.051213 1.161672 0.455870 0.642290 0.134170 18.627686 -7.253065 5.034153 -20.111784 6.575747 -53.758888 3.450420 -1.022897 -0.976578 -0.347495 -0.972507 3.558535 0.279790 0.125870 0.026090 -4.023761 -2.201721 -10.423684 5.563423 -8.465297 48.971800 -15.167137 1.286357 23.015286 5.961638 -2.715576 -40.265172 -25.334493 12.674453 74.341385 11.432420 -8.656110 -16.913880 -26.972873 -46.875215 20.875200 -11.854368 -36.166780 -12.852108 21.837313 -3.000712 -3.610310 -3.757266 2.667290 0.653570 -0.405050 0.502560 0.204980 15.189761 51.412614 10.842674 15.517816 36.556130 -3.333582 -8.915918 -7.686007 0.424426 3.563327 -0.641699 -0.039590 0.641720 0.009400 0.250220 
12.212960 15.981870 -7.018740 -5.260121 15.216080 7.593417 -15.184696 10.680771 5.439724 21.867959 -7.132097 -37.290233 -29.323668 15.657993 27.311725 0.461786 8.635681 1.273064 0.497390 0.692380 0.159230 18.644820 -7.339415 5.003821 -19.692090 6.729435 -53.155254 4.568076 -0.998867 -0.749248 -0.356574 -0.984259 3.544273 0.296640 0.082740 0.037570 -4.098252 -2.128565 -10.318829 5.961349 -9.351395 48.312390 -15.900255 1.292103 23.421130 6.166935 -2.613138 -39.684774 -24.994504 12.351358 73.411698 11.280360 -8.413460 -17.390210 -26.708933 -46.457273 20.123751 -12.958921 -34.416616 -12.171898 21.139417 -3.102070 -3.413034 -3.705289 2.727045 0.650260 -0.419810 0.523110 0.210600 14.357635 51.006586 10.825902 17.350654 35.357467 -3.075886 -9.196616 -7.204281 0.430965 3.486194 -0.694873 -0.007420 0.601580 -0.022950 0.247200 
12.105030 16.057490 -6.957240 -5.131113 15.762006 8.300212 -15.179482 10.855447 5.298520 21.489900 -7.014057 -36.588057 -27.290429 14.367172 26.126280 0.327860 8.123315 1.423038 0.485860 0.687670 0.145220 18.619566 -7.484142 4.952491 -19.065373 6.838462 -52.421602 5.918470 -1.227085 0.986108 -0.343749 -1.015209 3.528558 0.293540 0.077720 0.041830 -4.092857 -2.215123 -10.170914 5.511046 -9.414364 47.210650 -15.570548 1.154804 23.558147 6.122130 -2.920700 -38.796989 -25.484111 12.497095 71.986271 10.927520 -8.041270 -17.545720 -26.258900 -45.816033 18.850243 -15.800855 -32.761689 -10.515783 20.665688 -1.880802 -3.065608 -3.715957 2.769266 0.647820 -0.413780 0.519630 0.199370 14.218375 50.806901 11.016322 19.960182 33.100541 -2.936652 -9.560190 -6.918897 0.496156 3.390497 -0.726684 -0.005020 0.589630 -0.009740 0.242960 
